<svg width="120" height="120" viewBox="0 0 120 120" fill="none" xmlns="http://www.w3.org/2000/svg">
<path fill-rule="evenodd" clip-rule="evenodd" d="M5 14.19C5 11.7527 5.96823 9.41516 7.69169 7.6917C9.41515 5.96824 11.7527 5.00001 14.19 5.00001H105.8C107.008 4.99804 108.204 5.23433 109.321 5.69535C110.437 6.15636 111.452 6.83306 112.306 7.68669C113.161 8.54033 113.839 9.55413 114.301 10.6701C114.763 11.786 115.001 12.9821 115 14.19V105.8C115.001 107.008 114.764 108.205 114.303 109.321C113.841 110.438 113.164 111.452 112.31 112.307C111.456 113.161 110.442 113.839 109.326 114.301C108.209 114.763 107.013 115.001 105.805 115H14.19C12.9827 115 11.7873 114.762 10.672 114.3C9.55668 113.838 8.54336 113.16 7.68992 112.307C6.83649 111.453 6.15966 110.439 5.69811 109.323C5.23657 108.208 4.99934 107.012 5 105.805V14.19ZM48.54 46.94H63.435V54.42C65.585 50.12 71.085 46.25 79.35 46.25C95.195 46.25 98.95 54.815 98.95 70.53V99.64H82.915V74.11C82.915 65.16 80.765 60.11 75.305 60.11C67.73 60.11 64.58 65.555 64.58 74.11V99.64H48.54V46.94ZM21.04 98.955H37.08V46.25H21.04V98.95V98.955ZM39.375 29.06C39.4052 30.4334 39.1609 31.799 38.6562 33.0766C38.1515 34.3542 37.3968 35.5182 36.4362 36.5002C35.4756 37.4822 34.3285 38.2624 33.0623 38.795C31.7961 39.3277 30.4362 39.6021 29.0625 39.6021C27.6888 39.6021 26.3289 39.3277 25.0627 38.795C23.7965 38.2624 22.6494 37.4822 21.6888 36.5002C20.7282 35.5182 19.9735 34.3542 19.4688 33.0766C18.9641 31.799 18.7198 30.4334 18.75 29.06C18.8094 26.3643 19.9219 23.799 21.8494 21.9134C23.7769 20.0279 26.3661 18.9721 29.0625 18.9721C31.7589 18.9721 34.3481 20.0279 36.2756 21.9134C38.2031 23.799 39.3156 26.3643 39.375 29.06Z" fill="black"/>
</svg>
