<svg width="374" height="225" viewBox="0 0 374 225" fill="none" xmlns="http://www.w3.org/2000/svg">
<g opacity="0.35">
<g opacity="0.35">
<path opacity="0.35" d="M374 40.3261V187.232C374 208.017 357.457 225 337.209 225C316.961 225 300.418 208.017 300.418 187.232V122.687L363.901 57.413C370.295 50.8491 373.442 42.5662 373.442 34.2832C373.442 34.0748 373.442 33.8664 373.442 33.606C373.797 35.846 374 38.0861 374 40.3261Z" fill="#4D4D4D"/>
<path opacity="0.35" d="M267.027 54.8082L239.472 83.1475C235.107 87.6276 232.266 92.9412 230.895 98.4632V40.3261C230.895 29.9593 226.734 20.4782 220.087 13.6538C218.463 11.9868 216.687 10.4761 214.758 9.12164C216.382 10.1114 217.904 11.3096 219.325 12.5599L267.027 54.8082Z" fill="black"/>
<path opacity="0.35" d="M231.201 115.237L230.895 114.977V114.091C230.997 114.456 231.099 114.821 231.201 115.237Z" fill="white"/>
<path opacity="0.35" d="M230.896 114.977V187.232C230.896 166.446 214.352 149.463 194.105 149.463H157.313V41.9932C158.684 48.0882 162.033 53.9227 167.361 58.6633L230.896 114.977Z" fill="#808080"/>
<path opacity="0.35" d="M230.896 114.091V114.977L167.361 58.7153C162.033 54.0268 158.684 48.1923 157.313 42.0452V40.3261C157.313 23.8122 167.818 9.6426 182.281 4.58946C185.884 3.59967 189.639 3.07874 193.343 3.07874C200.854 3.07874 208.415 5.11041 214.758 9.12166C216.687 10.4761 218.463 11.9868 220.087 13.6538C226.734 20.4782 230.896 29.9593 230.896 40.3261V98.4111C229.627 103.568 229.627 108.934 230.896 114.091Z" fill="black"/>
<path opacity="0.35" d="M230.895 98.4111V114.092C229.627 108.934 229.627 103.568 230.895 98.4111Z" fill="white"/>
<path opacity="0.35" d="M194.105 149.463C214.352 149.463 230.896 166.446 230.896 187.232C230.896 208.017 214.352 225 194.105 225C173.857 225 157.313 208.017 157.313 187.232V149.463H194.105Z" fill="#808080"/>
<path opacity="0.35" d="M194.104 2.55786C201.767 2.55786 208.872 5.00628 214.809 9.1217C208.415 5.05837 200.904 3.0788 193.394 3.0788C189.639 3.0788 185.934 3.59974 182.331 4.58952C185.985 3.28717 189.943 2.55786 194.104 2.55786Z" fill="white"/>
<path opacity="0.35" d="M194.105 225H51.0001C71.2478 225 87.7911 208.017 87.7911 187.232V149.463H157.313V187.232C157.313 208.017 173.857 225 194.105 225Z" fill="#666666"/>
<path opacity="0.35" d="M182.28 4.58942C167.818 9.69465 157.313 23.8122 157.313 40.326V41.9931C155.03 31.6784 158.328 20.5302 167.361 12.5598C171.674 8.75696 176.8 6.10015 182.28 4.58942Z" fill="black"/>
<path opacity="0.35" d="M87.791 149.463V187.232C87.791 208.017 71.2477 225 51 225C30.7522 225 14.209 208.017 14.209 187.232C14.209 176.865 18.3701 167.384 25.0179 160.559C31.6656 153.735 40.9015 149.463 51 149.463H87.791Z" fill="#666666"/>
<path opacity="0.35" d="M87.791 40.3261V149.463H51C40.9015 149.463 31.6656 153.735 25.0179 160.559C18.3701 167.384 14.209 176.865 14.209 187.232V40.3261C14.209 19.5406 30.7522 2.55786 51 2.55786C61.0985 2.55786 70.3343 6.82958 76.982 13.6539C83.6298 20.4783 87.791 29.9594 87.791 40.3261Z" fill="#333333"/>
</g>
</g>
<path d="M359.791 40.3261V187.232C359.791 208.017 343.248 225 323 225C302.752 225 286.209 208.017 286.209 187.232V122.687L349.692 57.413C356.086 50.8491 359.233 42.5662 359.233 34.2832C359.233 34.0748 359.233 33.8664 359.233 33.606C359.588 35.846 359.791 38.0861 359.791 40.3261Z" fill="#414361"/>
<path d="M359.233 33.6581C359.233 33.8665 359.233 34.0749 359.233 34.3353C359.233 42.6183 356.086 50.9013 349.692 57.4652L286.209 122.739V114.248C290.522 105.756 290.522 95.9107 286.209 87.3672V40.3262C286.209 19.5406 302.752 2.55786 323 2.55786C333.098 2.55786 342.334 6.82958 348.982 13.6539C354.209 19.0196 357.862 25.9482 359.233 33.6581Z" fill="#05FFA1"/>
<path d="M359.233 33.6581C357.862 25.9481 354.209 19.0196 348.982 13.6539C342.334 6.82953 333.098 2.55782 323 2.55782C302.752 2.55782 286.209 19.5405 286.209 40.3261V87.3151C284.433 83.8247 281.946 80.5428 278.698 77.7297L252.818 54.8083L295.242 11.2055C308.842 -2.80788 332.236 -3.79767 347.206 8.91331C355.021 15.4772 359.03 24.4895 359.233 33.6581Z" fill="#05FFA1"/>
<path d="M286.209 87.3149C290.522 95.8063 290.522 105.652 286.209 114.196V87.3149Z" fill="#05FFA1"/>
<path d="M286.209 114.196V122.687L279.713 129.355C266.113 143.368 242.719 144.41 227.749 131.647C222.37 127.063 218.767 121.332 217.042 115.185L226.734 123.781C241.045 136.44 264.439 136.44 278.749 123.781C281.946 120.968 284.433 117.686 286.209 114.196Z" fill="#05FFA1"/>
<path d="M286.209 87.3151V114.196C284.433 117.686 281.946 120.968 278.698 123.781C264.388 136.44 240.994 136.44 226.683 123.781L216.991 115.185C216.889 114.821 216.788 114.404 216.686 114.039V98.3591C218.057 92.8371 220.898 87.5235 225.263 83.0434L252.818 54.7041L278.698 77.6256C281.946 80.5949 284.433 83.8248 286.209 87.3151Z" fill="#05FFA1"/>
<path d="M252.818 54.8082L225.263 83.1475C220.898 87.6276 218.057 92.9412 216.687 98.4632V40.3261C216.687 29.9593 212.525 20.4782 205.878 13.6538C204.254 11.9868 202.478 10.4761 200.549 9.12164C202.173 10.1114 203.695 11.3096 205.116 12.5599L252.818 54.8082Z" fill="#FFFB96"/>
<path d="M216.992 115.237L216.686 114.977V114.091C216.788 114.456 216.89 114.821 216.992 115.237Z" fill="white"/>
<path d="M216.686 114.977V187.232C216.686 166.446 200.143 149.463 179.895 149.463H143.104V41.9932C144.475 48.0882 147.824 53.9227 153.152 58.6633L216.686 114.977Z" fill="#FF71CE"/>
<path d="M216.686 114.091V114.977L153.152 58.7153C147.824 54.0268 144.475 48.1923 143.104 42.0452V40.3261C143.104 23.8122 153.609 9.6426 168.072 4.58946C171.675 3.59967 175.43 3.07874 179.134 3.07874C186.645 3.07874 194.206 5.11041 200.549 9.12166C202.477 10.4761 204.254 11.9868 205.877 13.6538C212.525 20.4782 216.686 29.9593 216.686 40.3261V98.4111C215.418 103.568 215.418 108.934 216.686 114.091Z" fill="#FFFB96"/>
<path d="M216.687 98.4111V114.092C215.418 108.934 215.418 103.568 216.687 98.4111Z" fill="white"/>
<path d="M179.895 149.463C200.143 149.463 216.686 166.446 216.686 187.232C216.686 208.017 200.143 225 179.895 225C159.648 225 143.104 208.017 143.104 187.232V149.463H179.895Z" fill="#FF71CE"/>
<path d="M179.895 2.55786C187.558 2.55786 194.663 5.00628 200.6 9.1217C194.206 5.05837 186.695 3.0788 179.185 3.0788C175.43 3.0788 171.725 3.59974 168.122 4.58952C171.776 3.28717 175.734 2.55786 179.895 2.55786Z" fill="white"/>
<path d="M179.895 225H36.791C57.0388 225 73.5821 208.017 73.5821 187.232V149.463H143.104V187.232C143.104 208.017 159.648 225 179.895 225Z" fill="#B967FF"/>
<path d="M168.072 4.58942C153.609 9.69465 143.104 23.8122 143.104 40.326V41.9931C140.821 31.6784 144.119 20.5302 153.152 12.5598C157.466 8.75696 162.591 6.10015 168.072 4.58942Z" fill="#FFFB96"/>
<path d="M73.5821 149.463V187.232C73.5821 208.017 57.0388 225 36.791 225C16.5433 225 0 208.017 0 187.232C0 176.865 4.16119 167.384 10.8089 160.559C17.4567 153.735 26.6925 149.463 36.791 149.463H73.5821Z" fill="#B967FF"/>
<path d="M73.5821 40.3261V149.463H36.791C26.6925 149.463 17.4567 153.735 10.8089 160.559C4.16119 167.384 0 176.865 0 187.232V40.3261C0 19.5406 16.5433 2.55786 36.791 2.55786C46.8895 2.55786 56.1254 6.82958 62.7731 13.6539C69.4209 20.4783 73.5821 29.9594 73.5821 40.3261Z" fill="#01CDFE"/>
</svg>
