<svg width="140" height="140" viewBox="0 0 140 140" fill="none" xmlns="http://www.w3.org/2000/svg">
<path d="M126.875 21.875H13.125C10.7051 21.875 8.75 23.8301 8.75 26.25V113.75C8.75 116.17 10.7051 118.125 13.125 118.125H126.875C129.295 118.125 131.25 116.17 131.25 113.75V26.25C131.25 23.8301 129.295 21.875 126.875 21.875ZM115.828 36.7637L72.6934 70.3281C71.627 71.1621 70.1367 71.1621 69.0703 70.3281L25.9219 36.7637C25.7592 36.6381 25.6399 36.4649 25.5807 36.2681C25.5215 36.0714 25.5253 35.8611 25.5916 35.6666C25.6579 35.4721 25.7835 35.3033 25.9506 35.1838C26.1177 35.0642 26.318 35 26.5234 35H115.227C115.432 35 115.632 35.0642 115.799 35.1838C115.967 35.3033 116.092 35.4721 116.158 35.6666C116.225 35.8611 116.229 36.0714 116.169 36.2681C116.11 36.4649 115.991 36.6381 115.828 36.7637Z" fill="black"/>
</svg>
